# xmcd
#
# Track frame offsets:
# 151
# 19542
# 35546
# 61394
# 87892
# 106197
# 135656
# 162752
# 179717
# 197032
# 217889
#
# Disc length: 3172 seconds
#
#
# Revision: 0
# Processed by: cddbd v1.5.1PL0 Copyright (c) Steve Scherf et al.
# Submitted via: FreeRIP 2.941 
#
DISCID=8e0c620b
DTITLE=Big Mike and The Booty Papas - Keep Your Hand Out My Pocket
DYEAR=2004
DGENRE=Blues
TTITLE0=I Can Tell
TTITLE1=You Can't Do That
TTITLE2=Whipping Post
TTITLE3=Keep Your Hands Out My Pocket
TTITLE4=No Use Crying
TTITLE5=Hey Willie
TTITLE6=Macon Blues
TTITLE7=Look At That Booty
TTITLE8=I'm In Love
TTITLE9=Struttin' With Taj
TTITLE10=Mellow Down Easy - Shake Your Money Maker
EXTD=
EXTT0=
EXTT1=
EXTT2=
EXTT3=
EXTT4=
EXTT5=
EXTT6=
EXTT7=
EXTT8=
EXTT9=
EXTT10=
PLAYORDER=
